<svg width="800" height="600" viewBox="0 0 800 600" fill="none" xmlns="http://www.w3.org/2000/svg">
  <!-- Background with premium gradient -->
  <rect width="800" height="600" rx="16" fill="url(#bg_gradient)" />
  
  <!-- Main app container with sharp edges -->
  <rect x="40" y="40" width="720" height="520" rx="12" fill="#0F1117" filter="url(#container_glow)" />
  <rect x="40" y="40" width="720" height="520" rx="12" stroke="url(#container_stroke)" stroke-width="1.5" />
  
  <!-- Top navigation bar -->
  <rect x="40" y="40" width="720" height="50" rx="12" fill="#161A23" />
  <rect x="40" y="40" width="720" height="50" rx="12" stroke="url(#nav_stroke)" stroke-width="1" />
  
  <!-- Window controls -->
  <circle cx="65" cy="65" r="6" fill="#FF5F57" filter="url(#small_glow)" />
  <circle cx="85" cy="65" r="6" fill="#FEBC2E" filter="url(#small_glow)" />
  <circle cx="105" cy="65" r="6" fill="#28C840" filter="url(#small_glow)" />
  
  <!-- Search bar in top nav -->
  <rect x="350" y="52" width="200" height="26" rx="6" fill="#1E2530" stroke="url(#search_stroke)" stroke-width="1" />
  <circle cx="365" cy="65" r="6" fill="#9370DB" opacity="0.8" />
  
  <!-- User profile in top nav -->
  <circle cx="730" cy="65" r="12" fill="url(#profile_gradient)" filter="url(#small_glow)" />
  
  <!-- Left sidebar / navigation panel -->
  <rect x="40" y="90" width="180" height="470" rx="0" fill="#161A23" />
  <rect x="40" y="90" width="180" height="470" rx="0" stroke="url(#sidebar_stroke)" stroke-width="1" />
  
  <!-- Logo area -->
  <rect x="70" y="110" width="120" height="30" rx="6" fill="url(#logo_gradient)" filter="url(#small_glow)" />
  
  <!-- Sidebar navigation items -->
  <rect x="55" y="170" width="150" height="36" rx="6" fill="#1E2530" />
  <rect x="55" y="216" width="150" height="36" rx="6" fill="url(#active_item_gradient)" stroke="#8A2BE2" stroke-width="1.5" />
  <rect x="55" y="262" width="150" height="36" rx="6" fill="#1E2530" />
  <rect x="55" y="308" width="150" height="36" rx="6" fill="#1E2530" />
  <rect x="55" y="354" width="150" height="36" rx="6" fill="#1E2530" />
  
  <!-- Sidebar icons -->
  <rect x="65" y="180" width="16" height="16" rx="3" fill="#6C757D" opacity="0.8" />
  <rect x="65" y="226" width="16" height="16" rx="3" fill="#9370DB" filter="url(#small_glow)" />
  <rect x="65" y="272" width="16" height="16" rx="3" fill="#6C757D" opacity="0.8" />
  <rect x="65" y="318" width="16" height="16" rx="3" fill="#6C757D" opacity="0.8" />
  <rect x="65" y="364" width="16" height="16" rx="3" fill="#6C757D" opacity="0.8" />
  
  <!-- Main content area -->
  <rect x="220" y="90" width="540" height="470" rx="0" fill="#0F1117" />
  
  <!-- Top KPI cards row -->
  <rect x="240" y="110" width="150" height="90" rx="8" fill="#161A23" stroke="url(#card_stroke)" stroke-width="1" />
  <rect x="410" y="110" width="150" height="90" rx="8" fill="#161A23" stroke="url(#card_stroke)" stroke-width="1" />
  <rect x="580" y="110" width="150" height="90" rx="8" fill="#161A23" stroke="url(#card_stroke)" stroke-width="1" />
  
  <!-- KPI card content -->
  <!-- Card 1 -->
  <rect x="255" y="125" width="60" height="10" rx="2" fill="#2A3343" />
  <rect x="255" y="145" width="120" height="20" rx="2" fill="url(#kpi1_gradient)" opacity="0.8" />
  <rect x="255" y="175" width="80" height="10" rx="2" fill="#2A3343" opacity="0.6" />
  
  <!-- Card 2 -->
  <rect x="425" y="125" width="60" height="10" rx="2" fill="#2A3343" />
  <rect x="425" y="145" width="120" height="20" rx="2" fill="url(#kpi2_gradient)" opacity="0.8" />
  <rect x="425" y="175" width="80" height="10" rx="2" fill="#2A3343" opacity="0.6" />
  
  <!-- Card 3 -->
  <rect x="595" y="125" width="60" height="10" rx="2" fill="#2A3343" />
  <rect x="595" y="145" width="120" height="20" rx="2" fill="url(#kpi3_gradient)" opacity="0.8" />
  <rect x="595" y="175" width="80" height="10" rx="2" fill="#2A3343" opacity="0.6" />
  
  <!-- Main chart section -->
  <rect x="240" y="220" width="320" height="220" rx="8" fill="#161A23" stroke="url(#card_stroke)" stroke-width="1" />
  
  <!-- Chart title and controls -->
  <rect x="260" y="235" width="100" height="12" rx="2" fill="#2A3343" />
  <rect x="500" y="235" width="40" height="20" rx="4" fill="#1E2530" stroke="url(#button_stroke)" stroke-width="1" />
  
  <!-- Main chart visualization -->
  <line x1="260" y1="290" x2="540" y2="290" stroke="#2A3343" stroke-width="1" stroke-dasharray="4 4" />
  <line x1="260" y1="330" x2="540" y2="330" stroke="#2A3343" stroke-width="1" stroke-dasharray="4 4" />
  <line x1="260" y1="370" x2="540" y2="370" stroke="#2A3343" stroke-width="1" stroke-dasharray="4 4" />
  <line x1="260" y1="410" x2="540" y2="410" stroke="#2A3343" stroke-width="1" />
  
  <!-- Chart vertical lines -->
  <line x1="300" y1="270" x2="300" y2="410" stroke="#2A3343" stroke-width="1" stroke-dasharray="4 4" opacity="0.3" />
  <line x1="340" y1="270" x2="340" y2="410" stroke="#2A3343" stroke-width="1" stroke-dasharray="4 4" opacity="0.3" />
  <line x1="380" y1="270" x2="380" y2="410" stroke="#2A3343" stroke-width="1" stroke-dasharray="4 4" opacity="0.3" />
  <line x1="420" y1="270" x2="420" y2="410" stroke="#2A3343" stroke-width="1" stroke-dasharray="4 4" opacity="0.3" />
  <line x1="460" y1="270" x2="460" y2="410" stroke="#2A3343" stroke-width="1" stroke-dasharray="4 4" opacity="0.3" />
  <line x1="500" y1="270" x2="500" y2="410" stroke="#2A3343" stroke-width="1" stroke-dasharray="4 4" opacity="0.3" />
  
  <!-- Primary line chart -->
  <path d="M260 370 L300 350 L340 380 L380 330 L420 310 L460 290 L500 270 L540 290" 
        stroke="url(#chart_line1_gradient)" stroke-width="3" stroke-linecap="round" filter="url(#line_glow)" fill="none" />
  
  <!-- Secondary line chart -->
  <path d="M260 390 L300 380 L340 400 L380 370 L420 350 L460 360 L500 330 L540 340" 
        stroke="url(#chart_line2_gradient)" stroke-width="2" stroke-linecap="round" fill="none" />
  
  <!-- Chart data points -->
  <circle cx="300" cy="350" r="5" fill="url(#point1_gradient)" filter="url(#small_glow)" />
  <circle cx="380" cy="330" r="5" fill="url(#point1_gradient)" filter="url(#small_glow)" />
  <circle cx="460" cy="290" r="5" fill="url(#point1_gradient)" filter="url(#small_glow)" />
  <circle cx="540" cy="290" r="5" fill="url(#point1_gradient)" filter="url(#small_glow)" />
  
  <circle cx="300" cy="380" r="4" fill="url(#point2_gradient)" />
  <circle cx="380" cy="370" r="4" fill="url(#point2_gradient)" />
  <circle cx="460" cy="360" r="4" fill="url(#point2_gradient)" />
  <circle cx="540" cy="340" r="4" fill="url(#point2_gradient)" />
  
  <!-- Secondary charts section -->
  <rect x="580" y="220" width="150" height="100" rx="8" fill="#161A23" stroke="url(#card_stroke)" stroke-width="1" />
  <rect x="580" y="340" width="150" height="100" rx="8" fill="#161A23" stroke="url(#card_stroke)" stroke-width="1" />
  
  <!-- Donut chart -->
  <rect x="595" y="230" width="80" height="10" rx="2" fill="#2A3343" />
  <circle cx="655" cy="275" r="30" fill="transparent" stroke="#2A3343" stroke-width="1" />
  <path d="M655 245 A30 30 0 0 1 681 265 L655 275 Z" fill="url(#donut1_gradient)" />
  <path d="M655 275 L681 265 A30 30 0 0 1 670 300 Z" fill="url(#donut2_gradient)" />
  <path d="M655 275 L670 300 A30 30 0 0 1 630 295 Z" fill="url(#donut3_gradient)" />
  <path d="M655 275 L630 295 A30 30 0 0 1 635 250 Z" fill="url(#donut4_gradient)" />
  <path d="M655 275 L635 250 A30 30 0 0 1 655 245 Z" fill="url(#donut5_gradient)" />
  
  <!-- Bar chart -->
  <rect x="595" y="350" width="80" height="10" rx="2" fill="#2A3343" />
  <rect x="605" y="370" width="15" height="50" rx="2" fill="url(#bar1_gradient)" />
  <rect x="630" y="385" width="15" height="35" rx="2" fill="url(#bar2_gradient)" />
  <rect x="655" y="375" width="15" height="45" rx="2" fill="url(#bar3_gradient)" />
  <rect x="680" y="395" width="15" height="25" rx="2" fill="url(#bar4_gradient)" />
  
  <!-- Bottom section - data table -->
  <rect x="240" y="460" width="490" height="100" rx="8" fill="#161A23" stroke="url(#card_stroke)" stroke-width="1" />
  
  <!-- Table header -->
  <rect x="260" y="475" width="450" height="20" rx="0" fill="#1E2530" />
  
  <!-- Table columns -->
  <rect x="260" y="475" width="120" height="20" rx="0" fill="#1E2530" />
  <rect x="380" y="475" width="100" height="20" rx="0" fill="#1E2530" />
  <rect x="480" y="475" width="100" height="20" rx="0" fill="#1E2530" />
  <rect x="580" y="475" width="130" height="20" rx="0" fill="#1E2530" />
  
  <!-- Table header text placeholders -->
  <rect x="270" y="480" width="60" height="10" rx="2" fill="#2A3343" />
  <rect x="390" y="480" width="60" height="10" rx="2" fill="#2A3343" />
  <rect x="490" y="480" width="60" height="10" rx="2" fill="#2A3343" />
  <rect x="590" y="480" width="60" height="10" rx="2" fill="#2A3343" />
  
  <!-- Table rows -->
  <rect x="260" y="495" width="450" height="1" fill="#2A3343" opacity="0.5" />
  
  <!-- Row 1 -->
  <rect x="270" y="505" width="80" height="10" rx="2" fill="#2A3343" opacity="0.8" />
  <rect x="390" y="505" width="40" height="10" rx="2" fill="#2A3343" opacity="0.8" />
  <rect x="490" y="505" width="60" height="10" rx="2" fill="url(#row1_gradient)" opacity="0.8" />
  <rect x="590" y="505" width="40" height="10" rx="2" fill="#2A3343" opacity="0.8" />
  
  <!-- Row 2 -->
  <rect x="260" y="525" width="450" height="1" fill="#2A3343" opacity="0.3" />
  <rect x="270" y="535" width="80" height="10" rx="2" fill="#2A3343" opacity="0.8" />
  <rect x="390" y="535" width="40" height="10" rx="2" fill="#2A3343" opacity="0.8" />
  <rect x="490" y="535" width="60" height="10" rx="2" fill="url(#row2_gradient)" opacity="0.8" />
  <rect x="590" y="535" width="40" height="10" rx="2" fill="#2A3343" opacity="0.8" />
  
  <!-- Gradients and filters -->
  <defs>
    <!-- Background gradient -->
    <linearGradient id="bg_gradient" x1="0" y1="0" x2="800" y2="600" gradientUnits="userSpaceOnUse">
      <stop offset="0" stop-color="#2E0854" />
      <stop offset="1" stop-color="#120524" />
    </linearGradient>
    
    <!-- Container glow -->
    <filter id="container_glow" x="-10" y="-10" width="740" height="540" filterUnits="userSpaceOnUse" color-interpolation-filters="sRGB">
      <feFlood flood-opacity="0" result="BackgroundImageFix"/>
      <feBlend mode="normal" in="SourceGraphic" in2="BackgroundImageFix" result="shape"/>
      <feGaussianBlur stdDeviation="5" result="effect1_foregroundBlur"/>
    </filter>
    
    <!-- Small glow for points and icons -->
    <filter id="small_glow" x="-2" y="-2" width="20" height="20" filterUnits="userSpaceOnUse" color-interpolation-filters="sRGB">
      <feFlood flood-opacity="0" result="BackgroundImageFix"/>
      <feBlend mode="normal" in="SourceGraphic" in2="BackgroundImageFix" result="shape"/>
      <feGaussianBlur stdDeviation="1" result="effect1_foregroundBlur"/>
    </filter>
    
    <!-- Line glow -->
    <filter id="line_glow" x="-5" y="-5" width="290" height="140" filterUnits="userSpaceOnUse" color-interpolation-filters="sRGB">
      <feFlood flood-opacity="0" result="BackgroundImageFix"/>
      <feBlend mode="normal" in="SourceGraphic" in2="BackgroundImageFix" result="shape"/>
      <feGaussianBlur stdDeviation="2" result="effect1_foregroundBlur"/>
    </filter>
    
    <!-- Container stroke gradient -->
    <linearGradient id="container_stroke" x1="40" y1="40" x2="760" y2="560" gradientUnits="userSpaceOnUse">
      <stop offset="0" stop-color="#9370DB" stop-opacity="0.7" />
      <stop offset="1" stop-color="#4B0082" stop-opacity="0.7" />
    </linearGradient>
    
    <!-- Navigation stroke gradient -->
    <linearGradient id="nav_stroke" x1="40" y1="40" x2="760" y2="90" gradientUnits="userSpaceOnUse">
      <stop offset="0" stop-color="#9370DB" stop-opacity="0.7" />
      <stop offset="1" stop-color="#4B0082" stop-opacity="0.7" />
    </linearGradient>
    
    <!-- Search stroke gradient -->
    <linearGradient id="search_stroke" x1="350" y1="52" x2="550" y2="78" gradientUnits="userSpaceOnUse">
      <stop offset="0" stop-color="#9370DB" stop-opacity="0.7" />
      <stop offset="1" stop-color="#4B0082" stop-opacity="0.7" />
    </linearGradient>
    
    <!-- Button stroke gradient -->
    <linearGradient id="button_stroke" x1="500" y1="235" x2="540" y2="255" gradientUnits="userSpaceOnUse">
      <stop offset="0" stop-color="#9370DB" stop-opacity="0.7" />
      <stop offset="1" stop-color="#4B0082" stop-opacity="0.7" />
    </linearGradient>
    
    <!-- Sidebar stroke gradient -->
    <linearGradient id="sidebar_stroke" x1="40" y1="90" x2="220" y2="560" gradientUnits="userSpaceOnUse">
      <stop offset="0" stop-color="#9370DB" stop-opacity="0.7" />
      <stop offset="1" stop-color="#4B0082" stop-opacity="0.7" />
    </linearGradient>
    
    <!-- Card stroke gradient -->
    <linearGradient id="card_stroke" x1="240" y1="110" x2="730" y2="560" gradientUnits="userSpaceOnUse">
      <stop offset="0" stop-color="#9370DB" stop-opacity="0.7" />
      <stop offset="1" stop-color="#4B0082" stop-opacity="0.7" />
    </linearGradient>
    
    <!-- Profile gradient -->
    <linearGradient id="profile_gradient" x1="718" y1="53" x2="742" y2="77" gradientUnits="userSpaceOnUse">
      <stop offset="0" stop-color="#9370DB" />
      <stop offset="1" stop-color="#DA70D6" />
    </linearGradient>
    
    <!-- Logo gradient -->
    <linearGradient id="logo_gradient" x1="70" y1="110" x2="190" y2="140" gradientUnits="userSpaceOnUse">
      <stop offset="0" stop-color="#9370DB" />
      <stop offset="1" stop-color="#DA70D6" />
    </linearGradient>
    
    <!-- Active item gradient -->
    <linearGradient id="active_item_gradient" x1="55" y1="216" x2="205" y2="252" gradientUnits="userSpaceOnUse">
      <stop offset="0" stop-color="#8A2BE2" stop-opacity="0.2" />
      <stop offset="1" stop-color="#9370DB" stop-opacity="0.1" />
    </linearGradient>
    
    <!-- KPI gradients -->
    <linearGradient id="kpi1_gradient" x1="255" y1="145" x2="375" y2="165" gradientUnits="userSpaceOnUse">
      <stop offset="0" stop-color="#9370DB" />
      <stop offset="1" stop-color="#DA70D6" />
    </linearGradient>
    
    <linearGradient id="kpi2_gradient" x1="425" y1="145" x2="545" y2="165" gradientUnits="userSpaceOnUse">
      <stop offset="0" stop-color="#9370DB" />
      <stop offset="1" stop-color="#DA70D6" />
    </linearGradient>
    
    <linearGradient id="kpi3_gradient" x1="595" y1="145" x2="715" y2="165" gradientUnits="userSpaceOnUse">
      <stop offset="0" stop-color="#9370DB" />
      <stop offset="1" stop-color="#DA70D6" />
    </linearGradient>
    
    <!-- Chart line gradients -->
    <linearGradient id="chart_line1_gradient" x1="260" y1="270" x2="540" y2="370" gradientUnits="userSpaceOnUse">
      <stop offset="0" stop-color="#A855F7" />
      <stop offset="1" stop-color="#6366F1" />
    </linearGradient>
    
    <linearGradient id="chart_line2_gradient" x1="260" y1="330" x2="540" y2="400" gradientUnits="userSpaceOnUse">
      <stop offset="0" stop-color="#DA70D6" />
      <stop offset="1" stop-color="#9370DB" />
    </linearGradient>
    
    <!-- Point gradients -->
    <linearGradient id="point1_gradient" x1="0" y1="0" x2="10" y2="10" gradientUnits="userSpaceOnUse">
      <stop offset="0" stop-color="#A855F7" />
      <stop offset="1" stop-color="#6366F1" />
    </linearGradient>
    
    <linearGradient id="point2_gradient" x1="0" y1="0" x2="8" y2="8" gradientUnits="userSpaceOnUse">
      <stop offset="0" stop-color="#DA70D6" />
      <stop offset="1" stop-color="#9370DB" />
    </linearGradient>
    
    <!-- Donut chart gradients -->
    <linearGradient id="donut1_gradient" x1="655" y1="245" x2="681" y2="265" gradientUnits="userSpaceOnUse">
      <stop offset="0" stop-color="#A855F7" />
      <stop offset="1" stop-color="#8A2BE2" />
    </linearGradient>
    
    <linearGradient id="donut2_gradient" x1="681" y1="265" x2="670" y2="300" gradientUnits="userSpaceOnUse">
      <stop offset="0" stop-color="#8A2BE2" />
      <stop offset="1" stop-color="#DA70D6" />
    </linearGradient>
    
    <linearGradient id="donut3_gradient" x1="670" y1="300" x2="630" y2="295" gradientUnits="userSpaceOnUse">
      <stop offset="0" stop-color="#DA70D6" />
      <stop offset="1" stop-color="#9932CC" />
    </linearGradient>
    
    <linearGradient id="donut4_gradient" x1="630" y1="295" x2="635" y2="250" gradientUnits="userSpaceOnUse">
      <stop offset="0" stop-color="#9932CC" />
      <stop offset="1" stop-color="#800080" />
    </linearGradient>
    
    <linearGradient id="donut5_gradient" x1="635" y1="250" x2="655" y2="245" gradientUnits="userSpaceOnUse">
      <stop offset="0" stop-color="#800080" />
      <stop offset="1" stop-color="#A855F7" />
    </linearGradient>
    
    <!-- Bar chart gradients -->
    <linearGradient id="bar1_gradient" x1="605" y1="370" x2="620" y2="420" gradientUnits="userSpaceOnUse">
      <stop offset="0" stop-color="#A855F7" />
      <stop offset="1" stop-color="#8A2BE2" />
    </linearGradient>
    
    <linearGradient id="bar2_gradient" x1="630" y1="385" x2="645" y2="420" gradientUnits="userSpaceOnUse">
      <stop offset="0" stop-color="#DA70D6" />
      <stop offset="1" stop-color="#9932CC" />
    </linearGradient>
    
    <linearGradient id="bar3_gradient" x1="655" y1="375" x2="670" y2="420" gradientUnits="userSpaceOnUse">
      <stop offset="0" stop-color="#9370DB" />
      <stop offset="1" stop-color="#6366F1" />
    </linearGradient>
    
    <linearGradient id="bar4_gradient" x1="680" y1="395" x2="695" y2="420" gradientUnits="userSpaceOnUse">
      <stop offset="0" stop-color="#8A2BE2" />
      <stop offset="1" stop-color="#4B0082" />
    </linearGradient>
    
    <!-- Table row gradients -->
    <linearGradient id="row1_gradient" x1="490" y1="505" x2="550" y2="515" gradientUnits="userSpaceOnUse">
      <stop offset="0" stop-color="#A855F7" />
      <stop offset="1" stop-color="#6366F1" />
    </linearGradient>
    
    <linearGradient id="row2_gradient" x1="490" y1="535" x2="550" y2="545" gradientUnits="userSpaceOnUse">
      <stop offset="0" stop-color="#DA70D6" />
      <stop offset="1" stop-color="#9370DB" />
    </linearGradient>
  </defs>
</svg> 