<svg width="800" height="600" viewBox="0 0 800 600" fill="none" xmlns="http://www.w3.org/2000/svg">
  <!-- Background with gradient -->
  <rect width="800" height="600" rx="16" fill="url(#paint0_linear)" />
  
  <!-- Dashboard Frame -->
  <rect x="40" y="40" width="720" height="520" rx="12" fill="#1E1E2E" stroke="#2A2A3A" stroke-width="1" />
  
  <!-- Top Navigation Bar -->
  <rect x="40" y="40" width="720" height="60" rx="12" fill="#1E1E2E" stroke="#2A2A3A" stroke-width="1" />
  
  <!-- Navigation Dots -->
  <circle cx="80" cy="70" r="6" fill="#A78BFA" opacity="0.8" />
  <circle cx="105" cy="70" r="6" fill="#A78BFA" opacity="0.6" />
  <circle cx="130" cy="70" r="6" fill="#A78BFA" opacity="0.4" />
  
  <!-- Search Bar -->
  <rect x="500" y="55" width="200" height="30" rx="15" fill="#2D2D3F" stroke="#3D3D4F" stroke-width="1" />
  <circle cx="515" cy="70" r="6" fill="#A78BFA" opacity="0.6" />
  
  <!-- Left Sidebar -->
  <rect x="40" y="100" width="160" height="460" rx="0" fill="#1E1E2E" stroke="#2A2A3A" stroke-width="1" />
  
  <!-- Sidebar Menu Items (just outlines, no text) -->
  <rect x="60" y="130" width="120" height="36" rx="8" fill="#7C3AED" opacity="0.2" stroke="#A78BFA" stroke-width="1" />
  <rect x="60" y="180" width="120" height="36" rx="8" fill="transparent" stroke="#3D3D4F" stroke-width="1" />
  <rect x="60" y="230" width="120" height="36" rx="8" fill="transparent" stroke="#3D3D4F" stroke-width="1" />
  <rect x="60" y="280" width="120" height="36" rx="8" fill="transparent" stroke="#3D3D4F" stroke-width="1" />
  <rect x="60" y="330" width="120" height="36" rx="8" fill="transparent" stroke="#3D3D4F" stroke-width="1" />
  
  <!-- Menu Icons (abstract shapes) -->
  <circle cx="80" cy="148" r="6" fill="#A78BFA" />
  <rect x="75" y="195" width="10" height="6" rx="2" fill="#6D6D8F" />
  <rect x="75" y="245" width="10" height="6" rx="2" fill="#6D6D8F" />
  <rect x="75" y="295" width="10" height="6" rx="2" fill="#6D6D8F" />
  <rect x="75" y="345" width="10" height="6" rx="2" fill="#6D6D8F" />
  
  <!-- Main Content Area - Top Section -->
  <rect x="220" y="120" width="520" height="200" rx="12" fill="#1E1E2E" stroke="#2A2A3A" stroke-width="1" />
  
  <!-- Abstract Chart Lines (no numbers) -->
  <path d="M240 270 L280 250 L320 260 L360 230 L400 210 L440 190 L480 200 L520 170 L560 150 L600 130 L640 110 L680 90" stroke="#A78BFA" stroke-width="3" stroke-linecap="round" fill="none" />
  <path d="M240 270 L280 260 L320 270 L360 250 L400 260 L440 240 L480 250 L520 230 L560 240 L600 220 L640 210 L680 200" stroke="#7C3AED" stroke-width="3" stroke-linecap="round" fill="none" />
  
  <!-- Chart Gradient -->
  <path d="M240 270 L280 250 L320 260 L360 230 L400 210 L440 190 L480 200 L520 170 L560 150 L600 130 L640 110 L680 90 L680 270 L240 270 Z" fill="url(#paint1_linear)" opacity="0.2" />
  
  <!-- Chart Dots -->
  <circle cx="280" cy="250" r="4" fill="#A78BFA" />
  <circle cx="360" cy="230" r="4" fill="#A78BFA" />
  <circle cx="440" cy="190" r="4" fill="#A78BFA" />
  <circle cx="520" cy="170" r="4" fill="#A78BFA" />
  <circle cx="600" cy="130" r="4" fill="#A78BFA" />
  <circle cx="680" cy="90" r="4" fill="#A78BFA" />
  
  <!-- Bottom Left Card -->
  <rect x="220" y="340" width="250" height="220" rx="12" fill="#1E1E2E" stroke="#2A2A3A" stroke-width="1" />
  
  <!-- Abstract Card Content -->
  <rect x="240" y="370" width="210" height="8" rx="4" fill="#3D3D4F" />
  <rect x="240" y="390" width="160" height="8" rx="4" fill="#3D3D4F" opacity="0.7" />
  
  <!-- Card Items -->
  <rect x="240" y="420" width="210" height="60" rx="8" fill="#2D2D3F" stroke="#3D3D4F" stroke-width="1" />
  <circle cx="265" cy="450" r="12" fill="#7C3AED" opacity="0.2" stroke="#A78BFA" stroke-width="1" />
  <rect x="290" y="440" width="140" height="6" rx="3" fill="#6D6D8F" />
  <rect x="290" y="455" width="100" height="6" rx="3" fill="#6D6D8F" opacity="0.6" />
  
  <rect x="240" y="490" width="210" height="60" rx="8" fill="#2D2D3F" stroke="#3D3D4F" stroke-width="1" />
  <circle cx="265" cy="520" r="12" fill="#7C3AED" opacity="0.2" stroke="#A78BFA" stroke-width="1" />
  <rect x="290" y="510" width="140" height="6" rx="3" fill="#6D6D8F" />
  <rect x="290" y="525" width="100" height="6" rx="3" fill="#6D6D8F" opacity="0.6" />
  
  <!-- Bottom Right Card -->
  <rect x="490" y="340" width="250" height="220" rx="12" fill="#1E1E2E" stroke="#2A2A3A" stroke-width="1" />
  
  <!-- Abstract Visualization -->
  <rect x="510" y="370" width="210" height="8" rx="4" fill="#3D3D4F" />
  <rect x="510" y="390" width="160" height="8" rx="4" fill="#3D3D4F" opacity="0.7" />
  
  <!-- Abstract Circular Chart -->
  <circle cx="565" cy="470" r="60" fill="transparent" stroke="#3D3D4F" stroke-width="1" />
  <path d="M565 410 A60 60 0 0 1 618 500" stroke="#A78BFA" stroke-width="6" stroke-linecap="round" fill="none" />
  <path d="M618 500 A60 60 0 0 1 565 530" stroke="#7C3AED" stroke-width="6" stroke-linecap="round" fill="none" />
  <path d="M565 530 A60 60 0 0 1 512 500" stroke="#C4B5FD" stroke-width="6" stroke-linecap="round" fill="none" />
  <circle cx="565" cy="470" r="40" fill="#1E1E2E" stroke="#2A2A3A" stroke-width="1" />
  
  <!-- Abstract Bar Chart -->
  <rect x="650" y="430" width="16" height="80" rx="4" fill="#7C3AED" opacity="0.3" stroke="#A78BFA" stroke-width="1" />
  <rect x="675" y="450" width="16" height="60" rx="4" fill="#7C3AED" opacity="0.5" stroke="#A78BFA" stroke-width="1" />
  <rect x="700" y="410" width="16" height="100" rx="4" fill="#7C3AED" opacity="0.7" stroke="#A78BFA" stroke-width="1" />
  
  <!-- Decorative Elements -->
  <circle cx="700" cy="70" r="8" fill="#7C3AED" opacity="0.6" />
  <circle cx="675" cy="70" r="8" fill="#A78BFA" opacity="0.6" />
  <circle cx="650" cy="70" r="8" fill="#C4B5FD" opacity="0.6" />
  
  <!-- Gradients -->
  <defs>
    <linearGradient id="paint0_linear" x1="0" y1="0" x2="800" y2="600" gradientUnits="userSpaceOnUse">
      <stop offset="0" stop-color="#0F0F1A" />
      <stop offset="1" stop-color="#1A1A2E" />
    </linearGradient>
    <linearGradient id="paint1_linear" x1="240" y1="90" x2="240" y2="270" gradientUnits="userSpaceOnUse">
      <stop offset="0" stop-color="#A78BFA" stop-opacity="0.6" />
      <stop offset="1" stop-color="#7C3AED" stop-opacity="0" />
    </linearGradient>
  </defs>
</svg> 