<svg width="800" height="600" viewBox="0 0 800 600" fill="none" xmlns="http://www.w3.org/2000/svg">
  <!-- Background with premium gradient -->
  <rect width="800" height="600" rx="24" fill="url(#bg_gradient)" />
  
  <!-- Main app container with subtle glow -->
  <rect x="100" y="100" width="600" height="400" rx="24" fill="#0F1117" filter="url(#container_glow)" />
  <rect x="100" y="100" width="600" height="400" rx="24" stroke="url(#container_stroke)" stroke-width="1" />
  
  <!-- Minimal top bar -->
  <rect x="100" y="100" width="600" height="40" rx="24" fill="#161A23" />
  
  <!-- Window controls -->
  <circle cx="125" cy="120" r="6" fill="#FF5F57" filter="url(#small_glow)" />
  <circle cx="145" cy="120" r="6" fill="#FEBC2E" filter="url(#small_glow)" />
  <circle cx="165" cy="120" r="6" fill="#28C840" filter="url(#small_glow)" />
  
  <!-- Single elegant chart that dominates the interface -->
  <rect x="130" y="170" width="540" height="300" rx="16" fill="#161A23" stroke="url(#card_stroke)" stroke-width="1" opacity="0.7" />
  
  <!-- Elegant line chart with gradient -->
  <path d="M160 400 C200 350, 240 380, 280 320 C320 260, 360 300, 400 240 C440 180, 480 220, 520 160 C560 100, 600 140, 640 80" 
        stroke="url(#chart_line_gradient)" stroke-width="3" stroke-linecap="round" filter="url(#line_glow)" fill="none" />
  
  <!-- Subtle area under the chart -->
  <path d="M160 400 C200 350, 240 380, 280 320 C320 260, 360 300, 400 240 C440 180, 480 220, 520 160 C560 100, 600 140, 640 80 L640 400 L160 400 Z" 
        fill="url(#chart_area_gradient)" opacity="0.15" />
  
  <!-- Subtle grid lines -->
  <line x1="160" y1="320" x2="640" y2="320" stroke="#2A3343" stroke-width="1" stroke-dasharray="4 4" opacity="0.3" />
  <line x1="160" y1="240" x2="640" y2="240" stroke="#2A3343" stroke-width="1" stroke-dasharray="4 4" opacity="0.3" />
  <line x1="160" y1="160" x2="640" y2="160" stroke="#2A3343" stroke-width="1" stroke-dasharray="4 4" opacity="0.3" />
  
  <!-- Baseline -->
  <line x1="160" y1="400" x2="640" y2="400" stroke="#2A3343" stroke-width="1" opacity="0.5" />
  
  <!-- Highlight points on the chart -->
  <circle cx="280" cy="320" r="6" fill="url(#point_gradient)" filter="url(#small_glow)" />
  <circle cx="400" cy="240" r="6" fill="url(#point_gradient)" filter="url(#small_glow)" />
  <circle cx="520" cy="160" r="6" fill="url(#point_gradient)" filter="url(#small_glow)" />
  
  <!-- Subtle reflection effect at the bottom -->
  <rect x="130" y="480" width="540" height="20" rx="10" fill="url(#reflection_gradient)" opacity="0.2" />
  
  <!-- Gradients and filters -->
  <defs>
    <!-- Background gradient -->
    <linearGradient id="bg_gradient" x1="0" y1="0" x2="800" y2="600" gradientUnits="userSpaceOnUse">
      <stop offset="0" stop-color="#2E0854" />
      <stop offset="1" stop-color="#120524" />
    </linearGradient>
    
    <!-- Container glow -->
    <filter id="container_glow" x="-10" y="-10" width="620" height="420" filterUnits="userSpaceOnUse" color-interpolation-filters="sRGB">
      <feFlood flood-opacity="0" result="BackgroundImageFix"/>
      <feBlend mode="normal" in="SourceGraphic" in2="BackgroundImageFix" result="shape"/>
      <feGaussianBlur stdDeviation="5" result="effect1_foregroundBlur"/>
    </filter>
    
    <!-- Small glow for points and icons -->
    <filter id="small_glow" x="-2" y="-2" width="20" height="20" filterUnits="userSpaceOnUse" color-interpolation-filters="sRGB">
      <feFlood flood-opacity="0" result="BackgroundImageFix"/>
      <feBlend mode="normal" in="SourceGraphic" in2="BackgroundImageFix" result="shape"/>
      <feGaussianBlur stdDeviation="1" result="effect1_foregroundBlur"/>
    </filter>
    
    <!-- Line glow -->
    <filter id="line_glow" x="-5" y="-5" width="650" height="410" filterUnits="userSpaceOnUse" color-interpolation-filters="sRGB">
      <feFlood flood-opacity="0" result="BackgroundImageFix"/>
      <feBlend mode="normal" in="SourceGraphic" in2="BackgroundImageFix" result="shape"/>
      <feGaussianBlur stdDeviation="2" result="effect1_foregroundBlur"/>
    </filter>
    
    <!-- Container stroke gradient -->
    <linearGradient id="container_stroke" x1="100" y1="100" x2="700" y2="500" gradientUnits="userSpaceOnUse">
      <stop offset="0" stop-color="#9370DB" stop-opacity="0.5" />
      <stop offset="1" stop-color="#4B0082" stop-opacity="0.5" />
    </linearGradient>
    
    <!-- Card stroke gradient -->
    <linearGradient id="card_stroke" x1="130" y1="170" x2="670" y2="470" gradientUnits="userSpaceOnUse">
      <stop offset="0" stop-color="#9370DB" stop-opacity="0.5" />
      <stop offset="1" stop-color="#4B0082" stop-opacity="0.5" />
    </linearGradient>
    
    <!-- Chart line gradient -->
    <linearGradient id="chart_line_gradient" x1="160" y1="80" x2="640" y2="400" gradientUnits="userSpaceOnUse">
      <stop offset="0" stop-color="#A855F7" />
      <stop offset="1" stop-color="#6366F1" />
    </linearGradient>
    
    <!-- Chart area gradient -->
    <linearGradient id="chart_area_gradient" x1="160" y1="80" x2="640" y2="400" gradientUnits="userSpaceOnUse">
      <stop offset="0" stop-color="#A855F7" stop-opacity="0.5" />
      <stop offset="1" stop-color="#6366F1" stop-opacity="0" />
    </linearGradient>
    
    <!-- Point gradient -->
    <linearGradient id="point_gradient" x1="0" y1="0" x2="12" y2="12" gradientUnits="userSpaceOnUse">
      <stop offset="0" stop-color="#A855F7" />
      <stop offset="1" stop-color="#6366F1" />
    </linearGradient>
    
    <!-- Reflection gradient -->
    <linearGradient id="reflection_gradient" x1="130" y1="480" x2="670" y2="500" gradientUnits="userSpaceOnUse">
      <stop offset="0" stop-color="#A855F7" stop-opacity="0.3" />
      <stop offset="1" stop-color="#6366F1" stop-opacity="0" />
    </linearGradient>
  </defs>
</svg> 