<svg xmlns="http://www.w3.org/2000/svg" width="128" height="128" viewBox="0 0 33.867 33.867" id="tiktok">
  <path fill="#ff005d" d="m23.293 2.08-5.119.002v21.132a4.465 4.465 0 0 1-2.767 4.138 4.463 4.463 0 0 1-4.88-.971 4.466 4.466 0 0 1-.972-4.883 4.463 4.463 0 0 1 4.138-2.764h1.656v-5.12h-1.656a9.614 9.614 0 0 0-8.867 5.927A9.613 9.613 0 0 0 6.906 30a9.614 9.614 0 0 0 10.461 2.081 9.613 9.613 0 0 0 5.926-8.868V11.497c1.393.83 3.04 1.44 5.064 1.44h2.559V7.815h-2.559c-2.878 0-3.659-1.171-4.342-2.657-.683-1.485-.722-3.078-.722-3.078Z" color="#000" font-family="sans-serif" font-weight="400" overflow="visible" paint-order="fill markers stroke" style="line-height:normal;font-variant-ligatures:normal;font-variant-position:normal;font-variant-caps:normal;font-variant-numeric:normal;font-variant-alternates:normal;font-variant-east-asian:normal;font-feature-settings:normal;font-variation-settings:normal;text-indent:0;text-align:start;text-decoration-line:none;text-decoration-style:solid;text-decoration-color:#000;text-transform:none;text-orientation:mixed;white-space:normal;shape-padding:0;shape-margin:0;inline-size:0;isolation:auto;mix-blend-mode:normal;solid-color:#000;solid-opacity:1"></path>
  <path fill="#00e0ff" d="m22.269 1.057-5.119.001V22.19a4.465 4.465 0 0 1-2.767 4.138 4.463 4.463 0 0 1-4.88-.971c-1.287-1.286-2.18-3.202-1.484-4.883.696-1.68 2.86-3.384 4.65-3.062l1.656.298v-5.12h-1.656a9.614 9.614 0 0 0-8.867 5.927 9.613 9.613 0 0 0 2.08 10.46c2.74 2.74 6.367 2.956 9.947 1.473 3.58-1.483 5.422-4.763 5.598-8.634l.561-12.372c1.394.83 3.322 1.85 5.329 2.121l2.575.347-.81-2.536.81-.997V6.792h-2.559c-2.878 0-3.659-1.171-4.342-2.657-.683-1.484-.722-3.078-.722-3.078Z" color="#000" font-family="sans-serif" font-weight="400" overflow="visible" paint-order="fill markers stroke" style="line-height:normal;font-variant-ligatures:normal;font-variant-position:normal;font-variant-caps:normal;font-variant-numeric:normal;font-variant-alternates:normal;font-variant-east-asian:normal;font-feature-settings:normal;font-variation-settings:normal;text-indent:0;text-align:start;text-decoration-line:none;text-decoration-style:solid;text-decoration-color:#000;text-transform:none;text-orientation:mixed;white-space:normal;shape-padding:0;shape-margin:0;inline-size:0;isolation:auto;mix-blend-mode:normal;solid-color:#000;solid-opacity:1"></path>
  <path fill="#59586e" d="M85.023 9.996 70.82 10v79.87c0 6.875-4.104 13.009-10.457 15.64a16.868 16.868 0 0 1-18.447-3.672 17.018 17.018 0 0 1-2.613-3.385 17.02 17.02 0 0 1-3.387-2.615 16.88 16.88 0 0 1-3.672-18.455 16.868 16.868 0 0 1 15.64-10.447h6.257V53.588h-.256c-14.647 0-27.91 8.867-33.516 22.398-5.057 12.21-3.017 26.14 5.037 36.354 10.215 8.059 24.151 10.103 36.364 5.045 13.531-5.605 22.396-18.87 22.396-33.516V39.582c5.267 3.138 11.488 5.441 19.14 5.441h9.67V31.67h-3.67c-9.288 0-12.793-3.23-15.228-7.668-3.79-1.786-5.56-4.844-7.183-8.373-.884-1.92-1.467-3.874-1.872-5.633z" color="#000" font-family="sans-serif" font-weight="400" overflow="visible" paint-order="fill markers stroke" style="line-height:normal;font-variant-ligatures:normal;font-variant-position:normal;font-variant-caps:normal;font-variant-numeric:normal;font-variant-alternates:normal;font-variant-east-asian:normal;font-feature-settings:normal;font-variation-settings:normal;text-indent:0;text-align:start;text-decoration-line:none;text-decoration-style:solid;text-decoration-color:#000;text-transform:none;text-orientation:mixed;white-space:normal;shape-padding:0;shape-margin:0;inline-size:0;isolation:auto;mix-blend-mode:normal;solid-color:#000;solid-opacity:1" transform="scale(.26458)"></path>
</svg>
